#N canvas 626 24 642 701 10;
#X obj 81 -128 OSCroute;
#X obj 172 -106 print;
#X obj 172 -131 dumpOSC 23457;
#X msg 35 -79 connect localhost 2345;
#X msg 42 -57 disconnect;
#X obj 13 143 sendOSC;
#X msg 242 -80 send /asdf/ltbattle/toggle 1;
#X msg 234 -51 send /asdf/ltbattle/toggle 0;
#X msg 233 -29 send /asdf/ltbattle/cmd move;
#X msg 233 -5 send /asdf/ltbattle/cmd clear;
#X msg 64 19 send /asdf/ltbattle/coordinates 100 100 100 100;
#X msg 58 79 send /asdf/ltbattle/coordinates 100 200 100 200;
#X msg 55 101 send /asdf/ltbattle/coordinates 200 200 200 200;
#X msg 65 37 send /asdf/ltbattle/coordinates 2000 2000 2000 2000;
#X msg 63 56 send /asdf/ltbattle/coordinates 500 2500 500 2500;
#X msg 64 161 send /asdf/grid/toggle;
#X msg 242 -103 send /asdf/ltbattle/brushsize \$1 \$2;
#X floatatom 304 -140 5 0 0 0 - - -;
#X floatatom 346 -143 5 0 0 0 - - -;
#X obj 242 177 vsl 15 64 0 768 0 0 empty empty empty 0 -9 0 10 -262144
-1 -1 3371 0;
#X obj 262 158 hsl 64 15 0 1024 0 0 empty empty empty -2 -8 0 10 -262144
-1 -1 443 0;
#X obj 243 272 bng 15 250 50 0 empty empty empty 17 7 0 10 -262144
-1 -1;
#X floatatom 267 238 5 0 0 0 - - -;
#X floatatom 333 189 5 0 0 0 - - -;
#X obj 243 251 i;
#X obj 207 187 i;
#X obj 45 290 pack f f;
#X msg 45 313 send /asdf/ltbattle/coordinates \$1 \$2 \$1 \$2;
#X obj 39 336 print;
#X obj 306 187 tgl 15 0 empty empty empty 17 7 0 10 -262144 -1 -1 0
1;
#X obj 273 206 spigot;
#X obj 333 294 random 1024;
#X obj 334 321 random 768;
#X obj 385 262 bng 15 250 50 0 empty empty empty 17 7 0 10 -262144
-1 -1;
#X msg 450 174 stop;
#X obj 429 174 bng 15 250 50 0 empty empty empty 17 7 0 10 -262144
-1 -1;
#X obj 440 225 bng 15 250 50 0 empty empty empty 17 7 0 10 -262144
-1 -1;
#X obj 440 244 timer;
#X msg 440 265 seed \$1;
#X obj 424 284 delay 125;
#X obj 424 304 timer;
#X msg 425 328 seed \$1;
#X obj 406 65 r beats;
#X obj 434 106 spigot;
#X obj 467 83 tgl 15 0 empty empty empty 17 7 0 10 -262144 -1 -1 0
1;
#X obj 426 7 metro 5000;
#X obj 447 -39 loadbang;
#X obj 426 -30 bng 15 250 50 0 empty empty empty 17 7 0 10 -262144
-1 -1;
#X obj 460 45 spigot;
#X obj 493 22 tgl 15 0 empty empty empty 17 7 0 10 -262144 -1 -1 0
1;
#X obj 381 228 spigot;
#X obj 418 196 tgl 15 0 empty empty empty 17 7 0 10 -262144 -1 -1 0
1;
#X obj 440 204 metro 500;
#X obj 259 -121 pack f f;
#X obj 396 -130 bng 15 250 50 0 empty empty empty 17 7 0 10 -262144
-1 -1;
#X msg 174 378 send /asdf/ltbattle/cmd clear;
#X msg 362 382 490 490;
#X msg 372 360 480 480;
#X msg 373 418 500 480;
#X msg 366 400 493 490;
#X msg 424 383 490 490;
#X msg 428 401 493 490;
#X msg 434 361 480 500;
#X msg 436 425 500 500;
#X msg 135 353 send /asdf/ltbattle/brushsize 25;
#X msg 115 500 send /asdf/audio/logspectrumsize \$1;
#X obj 501 493 pow;
#X obj 516 372 vsl 15 64 1 16 0 0 empty empty empty 0 -9 0 10 -262144
-1 -1 0 0;
#X floatatom 516 470 5 0 0 0 - - -;
#X msg 479 463 2;
#X floatatom 501 519 5 0 0 0 - - -;
#X obj 515 448 i;
#X msg 559 358 12;
#X msg 78 141 send /asdf/grid/polysearchdistance 20;
#X msg 70 122 send /asdf/ltbattle/coordinates 300 300 300 300;
#X connect 2 0 1 0;
#X connect 3 0 5 0;
#X connect 4 0 5 0;
#X connect 6 0 5 0;
#X connect 7 0 5 0;
#X connect 8 0 5 0;
#X connect 9 0 5 0;
#X connect 10 0 5 0;
#X connect 11 0 5 0;
#X connect 12 0 5 0;
#X connect 13 0 5 0;
#X connect 14 0 5 0;
#X connect 15 0 5 0;
#X connect 16 0 5 0;
#X connect 17 0 53 0;
#X connect 18 0 53 1;
#X connect 18 0 54 0;
#X connect 19 0 22 0;
#X connect 19 0 24 0;
#X connect 19 0 30 0;
#X connect 20 0 23 0;
#X connect 20 0 25 0;
#X connect 24 0 26 1;
#X connect 24 0 21 0;
#X connect 25 0 26 0;
#X connect 26 0 27 0;
#X connect 27 0 5 0;
#X connect 27 0 28 0;
#X connect 29 0 30 1;
#X connect 30 0 20 0;
#X connect 31 0 20 0;
#X connect 32 0 19 0;
#X connect 33 0 31 0;
#X connect 33 0 32 0;
#X connect 34 0 52 0;
#X connect 35 0 52 0;
#X connect 36 0 37 0;
#X connect 36 0 39 0;
#X connect 36 0 50 0;
#X connect 37 0 38 0;
#X connect 38 0 31 0;
#X connect 39 0 40 0;
#X connect 40 0 41 0;
#X connect 41 0 32 0;
#X connect 42 0 43 0;
#X connect 43 0 33 0;
#X connect 44 0 43 1;
#X connect 45 0 48 0;
#X connect 46 0 45 0;
#X connect 46 0 35 0;
#X connect 47 0 45 0;
#X connect 48 0 9 0;
#X connect 49 0 48 1;
#X connect 50 0 33 0;
#X connect 51 0 50 1;
#X connect 52 0 36 0;
#X connect 53 0 16 0;
#X connect 54 0 53 0;
#X connect 55 0 5 0;
#X connect 56 0 26 0;
#X connect 57 0 26 0;
#X connect 58 0 26 0;
#X connect 59 0 26 0;
#X connect 60 0 26 0;
#X connect 61 0 26 0;
#X connect 62 0 26 0;
#X connect 63 0 26 0;
#X connect 64 0 5 0;
#X connect 65 0 5 0;
#X connect 66 0 70 0;
#X connect 67 0 71 0;
#X connect 68 0 66 1;
#X connect 68 0 69 0;
#X connect 69 0 66 0;
#X connect 70 0 65 0;
#X connect 71 0 68 0;
#X connect 73 0 5 0;
#X connect 74 0 5 0;
