#N canvas 65 22 1156 747 10;
#X text 30 10 asdf command & control center;
#X obj 6 501 sendOSC;
#X msg 6 34 connect localhost 2345;
#X msg 13 56 disconnect;
#X obj 406 127 hradio 15 1 0 8 empty empty empty 0 -8 0 10 -262144
-1 -1 0;
#X floatatom 406 146 5 0 0 0 - - -;
#X obj 211 5 bng 35 250 50 0 empty empty next_image 38 7 0 10 -262144
-1 -1;
#X obj 210 96 bng 35 250 50 0 empty empty prev_image 38 7 0 10 -262144
-1 -1;
#X obj 45 113 tgl 35 0 empty empty empty 17 7 0 10 -262144 -1 -1 0
1;
#X msg 45 155 send /asdf/MuteToggle \$1;
#X obj 406 7 r beats;
#X floatatom 406 55 5 0 0 0 - - -;
#X obj 406 78 i;
#X obj 406 107 / 10;
#X obj 406 31 spigot;
#X obj 459 9 tgl 15 0 empty empty empty 17 7 0 10 -262144 -1 -1 0 1
;
#X msg 427 254 send /asdf/buildings/toggle;
#X msg 426 232 send /asdf/buildings/draw \$1;
#X obj 426 210 tgl 15 0 empty empty empty 17 7 0 10 -262144 -1 -1 0
1;
#X msg 428 318 send /asdf/buildings/roofs/toggle;
#X obj 428 277 tgl 15 0 empty empty empty 17 7 0 10 -262144 -1 -1 0
1;
#X msg 428 297 send /asdf/buildings/roofs/draw \$1;
#X msg 177 283 send /asdf/grid/toggle;
#X msg 177 325 send /asdf/grid/spec2gridlines/draw;
#X msg 211 67 send /asdf/image/prevnext \$1;
#X msg 210 159 send /asdf/image/prevnext \$1;
#X msg 211 44 1;
#X msg 210 136 -1;
#X obj 405 189 tgl 15 0 empty empty empty 17 7 0 10 -262144 -1 -1 0
1;
#X msg 422 395 send /asdf/grid/polysearchdistance \$1;
#X obj 425 354 hsl 128 15 0 1000 0 0 empty empty polySearchDist -2
-8 0 10 -262144 -1 -1 0 0;
#X obj 422 373 i;
#X floatatom 450 374 5 0 0 0 - - -;
#X obj 177 264 tgl 15 0 empty empty empty 17 7 0 10 -262144 -1 -1 0
1;
#X obj 177 306 tgl 15 0 empty empty empty 17 7 0 10 -262144 -1 -1 0
1;
#X floatatom 424 569 5 0 0 0 - - -;
#X floatatom 458 569 5 0 0 0 - - -;
#X obj 485 593 bng 15 250 50 0 empty empty empty 17 7 0 10 -262144
-1 -1;
#X obj 426 428 vsl 15 128 1 8192 1 1 empty empty x 0 -9 0 10 -262144
-1 -1 6700 0;
#X obj 457 424 vsl 15 128 1 8192 1 1 empty empty y 0 -9 0 10 -262144
-1 -1 6200 0;
#X msg 406 167 send /asdf/camera/select \$1;
#X obj 364 369 + 10;
#X obj 364 394 spigot;
#X obj 397 375 tgl 15 0 empty empty empty 17 7 0 10 -262144 -1 -1 0
1;
#X obj 445 89 spigot;
#X obj 478 70 tgl 15 0 empty empty empty 17 7 0 10 -262144 -1 -1 0
1;
#X obj 531 22 metro 5000;
#X obj 531 -1 loadbang;
#X obj 531 43 bng 15 250 50 0 empty empty empty 17 7 0 10 -262144 -1
-1;
#X obj 505 1 bng 15 250 50 0 empty empty empty 17 7 0 10 -262144 -1
-1;
#X obj 218 205 metro 30000;
#X obj 218 185 bng 15 250 50 0 empty empty empty 17 7 0 10 -262144
-1 -1;
#X obj 566 111 i 32;
#X obj 600 111 i 64;
#X obj 531 63 spigot;
#X obj 595 38 tgl 15 0 empty empty empty 17 7 0 10 -262144 -1 -1 0
1;
#X obj 218 229 spigot;
#X obj 293 206 tgl 15 0 empty empty empty 17 7 0 10 -262144 -1 -1 0
1;
#X obj 424 590 i;
#X obj 458 590 i;
#X obj 387 450 vsl 15 128 4 8192 0 1 empty empty logSpecSize -55 -9
0 10 -262144 -1 -1 12700 0;
#X obj 388 590 i;
#X floatatom 388 611 5 0 0 0 - - -;
#X msg 361 686 send /asdf/audio/logspectrum/size \$1;
#X obj 359 455 tgl 15 0 empty empty LogSpectrum -70 7 0 10 -262144
-1 -1 0 1;
#X msg 361 705 send /asdf/audio/logspectrum/toggle \$1;
#X msg 3 710 send /asdf/audio/spectrum/normalize/toggle \$1;
#X obj 118 555 tgl 15 0 empty empty normalizeAudio 17 7 0 10 -262144
-1 -1 0 1;
#X obj 230 400 tgl 15 0 empty empty adjust_spectrumAmps 17 7 0 10 -262144
-1 -1 0 1;
#X msg -10 690 send /asdf/audio/spectrum/adjustspectrumfreqsnamps/toggle
\$1;
#X msg -11 651 send /asdf/audio/spectrum/normalizewithfixedmaxvalue/toggle
\$1;
#X obj 219 416 tgl 15 0 empty empty normalizeWfixedVal 17 7 0 10 -262144
-1 -1 0 1;
#X msg 11 626 send /asdf/audio/spectrum/normalizewithfixedmaxvalue/set
\$1;
#X obj 220 449 vsl 15 128 0.0001 127 1 0 empty empty fixedNormalizeVal
0 -9 0 10 -262144 -1 -1 0 1;
#X floatatom 258 579 5 0 0 0 - - -;
#X obj 158 597 f;
#X obj 189 443 bng 15 250 50 0 empty empty empty 17 7 0 10 -262144
-1 -1;
#X msg 550 211 send /asdf/fftgrid/spectrummultiplier/set \$1;
#X obj 690 43 vsl 15 128 0.0001 16384 0 1 empty empty fftgrid_vertex_Multi
0 -9 0 10 -262144 -1 -1 1111 1;
#X floatatom 690 182 5 0 0 0 - - -;
#X obj 653 27 vsl 15 128 0.0001 16384 0 1 empty empty buildings_vertex_Multi
0 -9 0 10 -262144 -1 -1 2818 1;
#X floatatom 654 163 5 0 0 0 - - -;
#X msg 604 234 send /asdf/buildings/spectrummultiplier/set \$1;
#X obj 424 613 pack f f;
#X obj 664 627 pack f f f;
#X obj 773 608 bng 15 250 50 0 empty empty empty 17 7 0 10 -262144
-1 -1;
#X obj 663 569 vsl 15 32 0.001 127 0 0 empty empty empty 0 -9 0 10
-262144 -1 -1 0 1;
#X obj 698 569 vsl 15 32 0.001 127 0 0 empty empty empty 0 -9 0 10
-262144 -1 -1 0 1;
#X obj 732 570 vsl 15 32 0.001 127 0 0 empty empty empty 0 -9 0 10
-262144 -1 -1 0 1;
#X msg 664 647 send /asdf/fftgrid/colors/setrgb \$1 \$2 \$3;
#X floatatom 664 608 5 0 0 0 - - -;
#X floatatom 698 607 5 0 0 0 - - -;
#X floatatom 733 607 5 0 0 0 - - -;
#X obj 546 646 pack f f f;
#X obj 641 624 bng 15 250 50 0 empty empty empty 17 7 0 10 -262144
-1 -1;
#X obj 537 582 vsl 15 32 0.001 1 0 0 empty empty empty 0 -9 0 10 -262144
-1 -1 0 1;
#X obj 570 582 vsl 15 32 0.001 1 0 0 empty empty empty 0 -9 0 10 -262144
-1 -1 0 1;
#X obj 605 583 vsl 15 32 0.001 1 0 0 empty empty empty 0 -9 0 10 -262144
-1 -1 0 1;
#X floatatom 536 621 5 0 0 0 - - -;
#X floatatom 570 622 5 0 0 0 - - -;
#X floatatom 605 621 5 0 0 0 - - -;
#X msg 546 668 send /asdf/buildings/colors/setrgb \$1 \$2 \$3;
#X msg 519 375 send /asdf/buildings/minimumheight/set \$1;
#X obj 700 297 vsl 15 64 0.1 1024 0 1 empty empty buildings_minHeight
0 -9 0 10 -262144 -1 -1 0 1;
#X floatatom 727 355 5 0 0 0 - - -;
#X obj 537 540 bng 15 250 50 0 empty empty buildings_RGB 17 7 0 10
-262144 -1 -1;
#X obj 537 558 i 1;
#X obj 663 528 bng 15 250 50 0 empty empty fftgrid_RGB 17 7 0 10 -262144
-1 -1;
#X obj 663 546 i 1;
#X msg 362 666 send /asdf/grid/size \$1 \$2 0;
#X msg 524 494 send /asdf/audio/logspectrum/lowcutoff/set \$1;
#X obj 853 315 vsl 15 256 0 8192 0 0 empty empty logspectrum_lowCutoff
-40 -9 0 10 -262144 -1 -1 0 1;
#X obj 794 469 i;
#X floatatom 852 582 5 0 0 0 - - -;
#X msg 488 465 send /asdf/audio/logspectrum/lowcutoff/set 0;
#X msg 722 144 send /asdf/ltbattle/evenpolygons/set \$1;
#X obj 721 122 tgl 15 0 empty empty empty 17 7 0 10 -262144 -1 -1 0
1;
#X obj 716 75 tgl 15 0 empty empty empty 17 7 0 10 -262144 -1 -1 0
1;
#X msg 716 96 send /asdf/ltbattle/toggle \$1;
#X obj 77 245 bng 15 250 50 0 empty empty empty 17 7 0 10 -262144 -1
-1;
#X msg 508 438 send /asdf/ltbattle/minimumspecvar/set \$1;
#X obj 792 372 vsl 15 64 0.0001 5 0 1 empty empty LT_minimumSPECvar
0 -9 0 10 -262144 -1 -1 3 1;
#X floatatom 796 448 5 0 0 0 - - -;
#X obj 488 612 *;
#X floatatom 437 634 5 0 0 0 - - -;
#X msg 747 697 send /asdf/ltbattle/activestroke/minimumspecvar/set
\$1;
#X obj 922 438 vsl 15 64 0.0001 5 0 1 empty empty LT_activeStrokeMIN_SPECvar
0 -9 0 10 -262144 -1 -1 145 1;
#X floatatom 920 514 5 0 0 0 - - -;
#X connect 2 0 1 0;
#X connect 3 0 1 0;
#X connect 4 0 5 0;
#X connect 5 0 40 0;
#X connect 6 0 26 0;
#X connect 7 0 27 0;
#X connect 8 0 9 0;
#X connect 9 0 1 0;
#X connect 10 0 14 0;
#X connect 11 0 12 0;
#X connect 12 0 41 0;
#X connect 12 0 44 0;
#X connect 13 0 4 0;
#X connect 14 0 11 0;
#X connect 15 0 14 1;
#X connect 16 0 1 0;
#X connect 17 0 1 0;
#X connect 18 0 17 0;
#X connect 19 0 1 0;
#X connect 20 0 21 0;
#X connect 21 0 1 0;
#X connect 22 0 1 0;
#X connect 23 0 1 0;
#X connect 24 0 1 0;
#X connect 25 0 1 0;
#X connect 26 0 24 0;
#X connect 27 0 25 0;
#X connect 28 0 20 0;
#X connect 28 0 18 0;
#X connect 29 0 1 0;
#X connect 30 0 31 0;
#X connect 31 0 29 0;
#X connect 31 0 32 0;
#X connect 33 0 22 0;
#X connect 34 0 23 0;
#X connect 35 0 58 0;
#X connect 36 0 59 0;
#X connect 36 0 37 0;
#X connect 37 0 83 0;
#X connect 37 0 123 0;
#X connect 37 0 123 1;
#X connect 38 0 35 0;
#X connect 39 0 36 0;
#X connect 40 0 1 0;
#X connect 41 0 42 0;
#X connect 42 0 38 0;
#X connect 43 0 42 1;
#X connect 44 0 13 0;
#X connect 45 0 44 1;
#X connect 46 0 48 0;
#X connect 47 0 46 0;
#X connect 48 0 54 0;
#X connect 49 0 46 0;
#X connect 50 0 56 0;
#X connect 51 0 50 0;
#X connect 52 0 38 0;
#X connect 53 0 39 0;
#X connect 54 0 52 0;
#X connect 54 0 53 0;
#X connect 54 0 43 0;
#X connect 54 0 45 0;
#X connect 55 0 54 1;
#X connect 56 0 33 0;
#X connect 56 0 28 0;
#X connect 57 0 56 1;
#X connect 58 0 83 0;
#X connect 58 0 123 0;
#X connect 59 0 83 1;
#X connect 59 0 123 1;
#X connect 60 0 61 0;
#X connect 61 0 62 0;
#X connect 62 0 63 0;
#X connect 63 0 1 0;
#X connect 64 0 65 0;
#X connect 65 0 1 0;
#X connect 66 0 1 0;
#X connect 67 0 66 0;
#X connect 68 0 69 0;
#X connect 69 0 1 0;
#X connect 70 0 1 0;
#X connect 71 0 70 0;
#X connect 71 0 76 0;
#X connect 72 0 1 0;
#X connect 73 0 74 0;
#X connect 73 0 75 0;
#X connect 75 0 72 0;
#X connect 76 0 73 0;
#X connect 77 0 1 0;
#X connect 78 0 79 0;
#X connect 79 0 77 0;
#X connect 80 0 81 0;
#X connect 81 0 82 0;
#X connect 82 0 1 0;
#X connect 83 0 109 0;
#X connect 84 0 89 0;
#X connect 85 0 84 0;
#X connect 86 0 84 0;
#X connect 86 0 90 0;
#X connect 87 0 84 1;
#X connect 87 0 85 0;
#X connect 87 0 91 0;
#X connect 88 0 84 2;
#X connect 88 0 85 0;
#X connect 88 0 92 0;
#X connect 89 0 1 0;
#X connect 93 0 101 0;
#X connect 94 0 93 0;
#X connect 95 0 93 0;
#X connect 95 0 98 0;
#X connect 96 0 93 1;
#X connect 96 0 94 0;
#X connect 96 0 99 0;
#X connect 97 0 93 2;
#X connect 97 0 94 0;
#X connect 97 0 100 0;
#X connect 101 0 1 0;
#X connect 102 0 1 0;
#X connect 103 0 102 0;
#X connect 103 0 104 0;
#X connect 105 0 106 0;
#X connect 106 0 95 0;
#X connect 106 0 96 0;
#X connect 106 0 97 0;
#X connect 107 0 108 0;
#X connect 108 0 88 0;
#X connect 108 0 87 0;
#X connect 108 0 86 0;
#X connect 109 0 1 0;
#X connect 110 0 1 0;
#X connect 111 0 113 0;
#X connect 112 0 110 0;
#X connect 113 0 112 0;
#X connect 114 0 1 0;
#X connect 115 0 1 0;
#X connect 116 0 115 0;
#X connect 117 0 118 0;
#X connect 118 0 1 0;
#X connect 119 0 71 0;
#X connect 119 0 68 0;
#X connect 119 0 73 0;
#X connect 119 0 30 0;
#X connect 119 0 64 0;
#X connect 119 0 111 0;
#X connect 119 0 103 0;
#X connect 119 0 80 0;
#X connect 119 0 121 0;
#X connect 119 0 78 0;
#X connect 119 0 117 0;
#X connect 119 0 116 0;
#X connect 120 0 1 0;
#X connect 121 0 120 0;
#X connect 121 0 122 0;
#X connect 123 0 124 0;
#X connect 125 0 1 0;
#X connect 126 0 127 0;
#X connect 126 0 125 0;
