#N canvas 559 105 672 531 10;
#X text 30 10 asdf command & control center;
#X obj 6 501 sendOSC;
#X msg 6 34 connect localhost 2345;
#X msg 13 56 disconnect;
#X msg 406 167 send /asdf/camera/select \$1;
#X obj 406 127 hradio 15 1 0 8 empty empty empty 0 -8 0 10 -262144
-1 -1 2;
#X floatatom 406 146 5 0 0 0 - - -;
#X obj 211 5 bng 35 250 50 0 empty empty next_image 38 7 0 10 -262144
-1 -1;
#X obj 210 96 bng 35 250 50 0 empty empty prev_image 38 7 0 10 -262144
-1 -1;
#X obj 405 245 tgl 35 0 empty empty empty 17 7 0 10 -262144 -1 -1 0
1;
#X msg 405 287 send /asdf/MuteToggle \$1;
#X obj 406 7 r beats;
#X floatatom 406 55 5 0 0 0 - - -;
#X obj 406 78 i;
#X obj 406 103 / 10;
#X obj 406 31 spigot;
#X obj 459 9 tgl 15 0 empty empty empty 17 7 0 10 -262144 -1 -1 0 1
;
#X msg 408 369 send /asdf/buildings/toggle;
#X msg 407 347 send /asdf/buildings/draw \$1;
#X obj 407 325 tgl 15 0 empty empty empty 17 7 0 10 -262144 -1 -1 1
1;
#X msg 409 433 send /asdf/buildings/roofs/toggle;
#X obj 409 392 tgl 15 0 empty empty empty 17 7 0 10 -262144 -1 -1 1
1;
#X msg 409 412 send /asdf/buildings/roofs/draw \$1;
#X msg 410 464 send /asdf/grid/toggle;
#X msg 410 491 send /asdf/grid/spec2gridlines/draw;
#X msg 211 67 send /asdf/image/prevnext \$1;
#X msg 210 159 send /asdf/image/prevnext \$1;
#X msg 211 44 1;
#X msg 210 136 -1;
#X connect 2 0 1 0;
#X connect 3 0 1 0;
#X connect 4 0 1 0;
#X connect 5 0 6 0;
#X connect 6 0 4 0;
#X connect 7 0 27 0;
#X connect 8 0 28 0;
#X connect 9 0 10 0;
#X connect 10 0 1 0;
#X connect 11 0 15 0;
#X connect 12 0 13 0;
#X connect 13 0 14 0;
#X connect 14 0 5 0;
#X connect 15 0 12 0;
#X connect 16 0 15 1;
#X connect 17 0 1 0;
#X connect 18 0 1 0;
#X connect 19 0 18 0;
#X connect 20 0 1 0;
#X connect 21 0 22 0;
#X connect 22 0 1 0;
#X connect 23 0 1 0;
#X connect 24 0 1 0;
#X connect 25 0 1 0;
#X connect 26 0 1 0;
#X connect 27 0 25 0;
#X connect 28 0 26 0;
