#N canvas 600 239 672 531 10;
#X text 30 10 asdf command & control center;
#X obj 18 502 sendOSC;
#X msg 47 85 connect localhost 2345;
#X msg 59 107 disconnect;
#X msg 40 300 send /test2 true 32 3.14 a;
#X msg 41 322 send /test3 32;
#X obj 109 165 tgl 15 0 empty empty empty 17 7 0 10 -262144 -1 -1 0
1;
#X msg 40 360 send /test3 \$1;
#X msg 39 381 send /test3 toggleroofs;
#X msg 41 425 send /test3 3.14;
#X msg 40 403 send /test3 3.14823;
#X msg 389 59 send /asdf/camera/select \$1;
#X obj 389 19 hradio 15 1 0 8 empty empty empty 0 -8 0 10 -262144 -1
-1 7;
#X floatatom 389 38 5 0 0 0 - - -;
#X msg 244 53 send /asdf/image/next;
#X msg 242 117 send /asdf/image/prev;
#X obj 244 12 bng 35 250 50 0 empty empty empty 17 7 0 10 -262144 -1
-1;
#X obj 242 76 bng 35 250 50 0 empty empty empty 17 7 0 10 -262144 -1
-1;
#X obj 417 85 tgl 35 0 empty empty empty 17 7 0 10 -262144 -1 -1 0
1;
#X msg 417 127 send /asdf/MuteToggle \$1;
#X connect 2 0 1 0;
#X connect 3 0 1 0;
#X connect 4 0 1 0;
#X connect 5 0 1 0;
#X connect 6 0 7 0;
#X connect 7 0 1 0;
#X connect 8 0 1 0;
#X connect 9 0 1 0;
#X connect 10 0 1 0;
#X connect 11 0 1 0;
#X connect 12 0 13 0;
#X connect 13 0 11 0;
#X connect 14 0 1 0;
#X connect 15 0 1 0;
#X connect 16 0 14 0;
#X connect 17 0 15 0;
#X connect 18 0 19 0;
#X connect 19 0 1 0;
