#N canvas 544 191 672 531 10;
#X text 143 45 asdf command & control center;
#X obj 18 502 sendOSC;
#X msg 47 85 connect localhost 2345;
#X msg 59 107 disconnect;
#X msg 105 124 send /test2 true 32 3.14 a;
#X msg 109 154 send /test3 32;
#X obj 305 126 tgl 15 0 empty empty empty 17 7 0 10 -262144 -1 -1 0
1;
#X msg 210 154 send /test3 \$1;
#X msg 221 182 send /test3 toggleroofs;
#X msg 248 243 send /test3 3.14;
#X msg 247 216 send /test3 3.14823;
#X msg 332 313 send /asdf hallo;
#X msg 327 282 send /asdf hallo welt;
#X msg 418 257 send /asdf 1.341;
#X floatatom 461 343 5 0 0 0 - - -;
#X msg 358 409 send /asdf bb\$1;
#X msg 394 139 send /asdf drawBuildingsToggle;
#X symbolatom 396 74 10 0 0 0 - - -;
#X msg 401 165 send /asdf cameraSwitchToggle;
#X msg 407 188 send /asdf cameraSwitchToggle a123;
#X msg 412 207 send /asdf cameraSwitchToggle 123;
#X msg 425 231 send /asdf 432 123;
#X msg 352 382 send /asdf \$1;
#X msg 511 278 send /asdf 432 \$1;
#X msg 466 308 send /asdf/drawtoggle 432 \$1;
#X msg 521 396 send /asdf/msgqtest 1;
#X connect 2 0 1 0;
#X connect 3 0 1 0;
#X connect 4 0 1 0;
#X connect 5 0 1 0;
#X connect 6 0 7 0;
#X connect 7 0 1 0;
#X connect 8 0 1 0;
#X connect 9 0 1 0;
#X connect 10 0 1 0;
#X connect 11 0 1 0;
#X connect 12 0 1 0;
#X connect 13 0 1 0;
#X connect 14 0 22 0;
#X connect 14 0 15 0;
#X connect 14 0 23 0;
#X connect 15 0 1 0;
#X connect 16 0 1 0;
#X connect 18 0 1 0;
#X connect 19 0 1 0;
#X connect 20 0 1 0;
#X connect 21 0 1 0;
#X connect 22 0 1 0;
#X connect 23 0 1 0;
#X connect 24 0 1 0;
#X connect 25 0 1 0;
