#N canvas 0 22 938 590 10;
#X text -25 7 asdf command & control center;
#X obj 477 462 hradio 15 1 0 8 CameraSelect CameraSelect CameraSelect
0 -8 0 10 -262144 -1 -1 0;
#X floatatom 477 481 5 0 0 0 - - -;
#X obj 279 15 bng 35 250 50 0 bnextimage empty next_image 38 7 0 10
-262144 -1 -1;
#X obj 169 14 bng 35 250 50 0 bprevimage empty prev_image 38 7 0 10
-262144 -1 -1;
#X obj 476 424 tgl 15 0 RoofsToggle RoofsToggle RoofsToggle 17 7 0
10 -262144 -1 -1 1 1;
#X obj 322 189 hsl 128 30 0 1000 0 0 polySearchDist polySearchDist
polySearchDist -2 -8 0 10 -262144 -1 -1 1100 1;
#X obj 319 223 i;
#X obj 476 379 tgl 15 0 gridToggle gridToggle gridToggle 17 7 0 10
-262144 -1 -1 1 1;
#X obj 313 299 vsl 30 128 1 8192 1 1 gridSize_x gridSize_x gridSize_x
0 -9 0 10 -262144 -1 -1 6200 1;
#X obj 381 300 vsl 30 128 1 8192 1 1 gridSize_y gridSize_y gridSize_y
0 -9 0 10 -262144 -1 -1 6500 1;
#X obj 194 297 vsl 30 128 4 8192 0 1 logarithmicSpecSize logarithmicSpecSize
logarithmicSpecSize 0 -9 0 10 -262144 -1 -1 12700 1;
#X obj 194 435 i;
#X floatatom 194 459 5 0 0 0 - - -;
#X obj 145 130 tgl 15 0 LogSpectrum LogSpectrum LogSpectrum 17 7 0
10 -262144 -1 -1 1 1;
#X obj 0 130 tgl 15 0 normalizeAudio normalizeAudio normalizeAudio
17 7 0 10 -262144 -1 -1 0 1;
#X obj 0 164 tgl 15 0 adjust_spectrumAmps adjust_spectrumAmps adjust_spectrumAmps
17 7 0 10 -262144 -1 -1 1 1;
#X obj 0 187 tgl 15 0 normalizeWfixedVal normalizeWfixedVal normalizeWfixedVal
17 7 0 10 -262144 -1 -1 1 1;
#X obj 0 248 vsl 30 128 0.0001 127 1 0 fixedNormalizeVal fixedNormalizeVal
fixedNormalizeVal 0 -9 0 10 -262144 -1 -1 4600 1;
#X floatatom 0 386 5 0 0 0 - - -;
#X obj 0 209 bng 15 250 50 0 empty empty empty 17 7 0 10 -262144 -1
-1;
#X obj 626 87 vsl 30 128 0.0001 16384 0 1 fftgrid_vertex_Multi fftgrid_vertex_Multi
fftgrid_vertex_Multi 0 -9 0 10 -262144 -1 -1 812 1;
#X floatatom 626 227 5 0 0 0 - - -;
#X obj 478 88 vsl 30 128 0.0001 16384 0 1 buildings_vertex_Multi buildings_vertex_Multi
buildings_vertex_Multi 0 -9 0 10 -262144 -1 -1 18 1;
#X floatatom 478 226 5 0 0 0 - - -;
#X obj 751 418 vsl 30 127 0.001 127 0 0 fftgridRGB_R fftgridRGB_R fftgridRGB_R
0 -9 0 10 -262144 -1 -1 55 1;
#X obj 786 418 vsl 30 127 0.001 127 0 0 fftgridRGB_G fftgridRGB_G fftgridRGB_G
0 -9 0 10 -262144 -1 -1 55 1;
#X obj 820 419 vsl 30 127 0.001 127 0 0 fftgridRGB_B fftgridRGB_B fftgridRGB_B
0 -9 0 10 -262144 -1 -1 55 1;
#X floatatom 751 555 5 0 0 0 - - -;
#X floatatom 785 554 5 0 0 0 - - -;
#X floatatom 820 554 5 0 0 0 - - -;
#X obj 625 419 vsl 30 127 0.001 1 0 0 buildingsRGB_R buildingsRGB_R
buildingsRGB_R 0 -9 0 10 -262144 -1 -1 2100 1;
#X obj 658 418 vsl 30 127 0.001 1 0 0 buildingsRGB_G buildingsRGB_G
buildingsRGB_G 0 -9 0 10 -262144 -1 -1 2800 1;
#X obj 693 418 vsl 30 127 0.001 1 0 0 buildingsRGB_B buildingsRGB_B
buildingsRGB_B 0 -9 0 10 -262144 -1 -1 3000 1;
#X floatatom 625 557 5 0 0 0 - - -;
#X floatatom 659 557 5 0 0 0 - - -;
#X floatatom 693 556 5 0 0 0 - - -;
#X obj 478 265 vsl 30 64 0.1 1024 0 1 buildings_minHeight buildings_minHeight
buildings_minHeight 0 -9 0 10 -262144 -1 -1 200 1;
#X floatatom 478 343 5 0 0 0 - - -;
#X obj 625 376 bng 15 250 50 0 empty empty buildings_RGB 17 7 0 10
-262144 -1 -1;
#X obj 625 394 i 1;
#X obj 751 377 bng 15 250 50 0 empty empty fftgrid_RGB 17 7 0 10 -262144
-1 -1;
#X obj 751 395 i 1;
#X obj 145 170 vsl 30 256 0 8192 0 0 logspectrum_lowCutoff logspectrum_lowCutoff
logspectrum_lowCutoff 0 -9 0 10 -262144 -1 -1 200 1;
#X obj 145 457 i;
#X floatatom 145 435 5 0 0 0 - - -;
#X obj 392 52 tgl 15 0 LTevenPolygons LTevenPolygons LTevenPolygons
17 7 0 10 -262144 -1 -1 0 1;
#X obj 392 15 tgl 30 0 LT_LASER_TAG_TOGGLE LT_LASER_TAG_TOGGLE LT_LASER_TAG_TOGGLE
34 7 0 10 -262144 -1 -1 0 1;
#X obj 613 264 vsl 30 64 0.0001 5 0 1 LT_minimumSPECvar LT_minimumSPECvar
LT_minimumSPECvar 0 -9 0 10 -262144 -1 -1 5 1;
#X floatatom 613 343 5 0 0 0 - - -;
#X floatatom 347 482 5 0 0 0 - gridsize_mul -;
#X obj 728 264 vsl 30 64 0.0001 5 0 1 LT_activeStrokeMIN_SPECvar LT_activeStrokeMIN_SPECvar
LT_activeStrokeMIN_SPECvar 0 -9 0 10 -262144 -1 -1 110 1;
#X floatatom 728 341 5 0 0 0 - - -;
#X floatatom 319 244 5 0 0 0 - - -;
#X obj 476 402 tgl 15 0 BuildingsToggle BuildingsToggle BuildingsToggle
17 7 0 10 -262144 -1 -1 1 1;
#X text -3 561 scriptythekid 2008/2009;
#X obj 313 435 i;
#X obj 381 437 i;
#X floatatom 312 458 5 0 0 0 - - -;
#X floatatom 380 458 5 0 0 0 - - -;
#X obj -17 40 tgl 35 0 oscConnect oscConnect oscConnect 0 -7 0 10 -262144
-1 -1 1 1;
#X obj 170 69 bng 15 250 50 0 flushValuesToASDF flushValuesToASDF flushValuesToASDF
17 7 0 10 -262144 -1 -1;
#X connect 1 0 2 0;
#X connect 6 0 7 0;
#X connect 7 0 53 0;
#X connect 9 0 56 0;
#X connect 10 0 57 0;
#X connect 11 0 12 0;
#X connect 12 0 13 0;
#X connect 17 0 20 0;
#X connect 18 0 19 0;
#X connect 20 0 18 0;
#X connect 21 0 22 0;
#X connect 23 0 24 0;
#X connect 25 0 28 0;
#X connect 26 0 29 0;
#X connect 27 0 30 0;
#X connect 31 0 34 0;
#X connect 32 0 35 0;
#X connect 33 0 36 0;
#X connect 37 0 38 0;
#X connect 39 0 40 0;
#X connect 40 0 31 0;
#X connect 40 0 32 0;
#X connect 40 0 33 0;
#X connect 41 0 42 0;
#X connect 42 0 27 0;
#X connect 42 0 26 0;
#X connect 42 0 25 0;
#X connect 43 0 45 0;
#X connect 45 0 44 0;
#X connect 47 0 46 0;
#X connect 48 0 49 0;
#X connect 51 0 52 0;
#X connect 56 0 58 0;
#X connect 57 0 59 0;
