#N canvas -1 22 1219 732 10;
#X msg 27 64 send /asdf/MuteToggle \$1;
#X msg 395 148 send /asdf/buildings/draw \$1;
#X msg 395 193 send /asdf/buildings/roofs/draw \$1;
#X msg 394 105 send /asdf/grid/toggle;
#X msg 27 131 send /asdf/image/prevnext \$1;
#X msg 27 200 send /asdf/image/prevnext \$1;
#X msg 27 108 1;
#X msg 27 177 -1;
#X msg 395 59 send /asdf/grid/polysearchdistance \$1;
#X obj 395 39 i;
#X obj 474 408 bng 15 250 50 0 empty empty empty 17 7 0 10 -262144
-1 -1;
#X msg 396 332 send /asdf/camera/select \$1;
#X obj 397 395 i;
#X obj 431 395 i;
#X obj 23 570 i;
#X msg 23 592 send /asdf/audio/logspectrum/size \$1;
#X msg 24 464 send /asdf/audio/logspectrum/toggle \$1;
#X msg 28 248 send /asdf/audio/spectrum/normalize/toggle \$1;
#X msg 26 294 send /asdf/audio/spectrum/adjustspectrumfreqsnamps/toggle
\$1;
#X msg 25 341 send /asdf/audio/spectrum/normalizewithfixedmaxvalue/toggle
\$1;
#X msg 24 419 send /asdf/audio/spectrum/normalizewithfixedmaxvalue/set
\$1;
#X obj 24 398 f;
#X msg 711 128 send /asdf/fftgrid/spectrummultiplier/set \$1;
#X msg 711 176 send /asdf/buildings/spectrummultiplier/set \$1;
#X obj 397 418 pack f f;
#X obj 398 599 pack f f f;
#X obj 424 576 bng 15 250 50 0 empty empty empty 17 7 0 10 -262144
-1 -1;
#X msg 398 621 send /asdf/buildings/colors/setrgb \$1 \$2 \$3;
#X msg 395 240 send /asdf/buildings/minimumheight/set \$1;
#X msg 397 481 send /asdf/grid/size \$1 \$2 0;
#X msg 23 527 send /asdf/audio/logspectrum/lowcutoff/set \$1;
#X obj 23 507 i;
#X msg 710 82 send /asdf/ltbattle/evenpolygons/set \$1;
#X msg 710 37 send /asdf/ltbattle/toggle \$1;
#X msg 711 220 send /asdf/ltbattle/minimumspecvar/set \$1;
#X msg 396 286 send /asdf/ltbattle/activestroke/minimumspecvar/set
\$1;
#X obj 27 153 r bprevimage;
#X obj 27 85 r bnextimage;
#X obj 27 42 r mutetoggle;
#X text -16 8 asdf command & control center INTERNALS;
#X obj 27 224 r normalizeAudio;
#X obj 26 271 r adjust_spectrumAmps;
#X obj 25 318 r normalizeWfixedVal;
#X obj 24 376 r fixedNormalizeVal;
#X obj 24 440 r LogSpectrum;
#X obj 23 486 r logspectrum_lowCutoff;
#X obj 23 549 r logarithmicSpecSize;
#X obj 397 355 r gridSize_x;
#X obj 431 373 r gridSize_y;
#X obj 480 459 s gridsize_mul;
#X obj 480 437 *;
#X obj 710 14 r LT_LASER_TAG_TOGGLE;
#X obj 710 59 r LTevenPolygons;
#X obj 711 153 r buildings_vertex_Multi;
#X obj 711 105 r fftgrid_vertex_Multi;
#X obj 395 216 r buildings_minHeight;
#X obj 711 197 r LT_minimumSPECvar;
#X obj 396 263 r LT_activeStrokeMIN_SPECvar;
#X obj 394 83 r gridToggle;
#X obj 395 127 r BuildingsToggle;
#X obj 395 172 r RoofsToggle;
#X obj 396 308 r CameraSelect;
#X obj 398 504 r buildingsRGB_R;
#X obj 418 525 r buildingsRGB_G;
#X obj 434 546 r buildingsRGB_B;
#X obj 714 341 pack f f f;
#X obj 740 318 bng 15 250 50 0 empty empty empty 17 7 0 10 -262144
-1 -1;
#X obj 714 246 r fftgridRGB_R;
#X obj 734 267 r fftgridRGB_G;
#X obj 750 288 r fftgridRGB_B;
#X msg 714 363 send /asdf/fftgrid/colors/setrgb \$1 \$2 \$3;
#X obj 318 628 sendOSC;
#X msg 776 596 connect localhost 2345;
#X msg 748 617 disconnect;
#X obj 748 541 r oscConnect;
#X floatatom 825 565 5 0 0 0 - - -;
#X obj 748 573 select 0 1;
#X obj 395 18 r polySearchDist;
#X obj 930 252 r flushValuesToASDF;
#X obj 962 576 s normalizeAudio;
#X obj 956 597 s adjust_spectrumAmps;
#X obj 946 617 s normalizeWfixedVal;
#X obj 935 638 s fixedNormalizeVal;
#X obj 926 658 s LogSpectrum;
#X obj 915 679 s logspectrum_lowCutoff;
#X obj 904 700 s logarithmicSpecSize;
#X obj 1118 161 s buildingsRGB_R;
#X obj 1114 181 s buildingsRGB_G;
#X obj 1106 202 s buildingsRGB_B;
#X obj 1040 371 s gridSize_x;
#X obj 1032 393 s gridSize_y;
#X obj 1056 328 s LT_activeStrokeMIN_SPECvar;
#X obj 1047 349 s CameraSelect;
#X obj 1064 306 s buildings_minHeight;
#X obj 1073 285 s RoofsToggle;
#X obj 1083 265 s BuildingsToggle;
#X obj 1091 244 s gridToggle;
#X obj 1098 222 s polySearchDist;
#X obj 1021 413 s LT_LASER_TAG_TOGGLE;
#X obj 1014 434 s LTevenPolygons;
#X obj 1005 454 s fftgrid_vertex_Multi;
#X obj 997 474 s buildings_vertex_Multi;
#X obj 987 494 s LT_minimumSPECvar;
#X obj 981 515 s fftgridRGB_R;
#X obj 974 535 s fftgridRGB_G;
#X obj 969 557 s fftgridRGB_B;
#X obj 931 294 bng 15 250 50 0 empty empty empty 17 7 0 10 -262144
-1 -1;
#X obj 944 272 delay 125;
#X connect 0 0 71 0;
#X connect 1 0 71 0;
#X connect 2 0 71 0;
#X connect 3 0 71 0;
#X connect 4 0 71 0;
#X connect 5 0 71 0;
#X connect 6 0 4 0;
#X connect 7 0 5 0;
#X connect 8 0 71 0;
#X connect 9 0 8 0;
#X connect 10 0 24 0;
#X connect 10 0 50 0;
#X connect 11 0 71 0;
#X connect 12 0 24 0;
#X connect 12 0 50 0;
#X connect 12 0 10 0;
#X connect 13 0 24 1;
#X connect 13 0 50 1;
#X connect 13 0 10 0;
#X connect 14 0 15 0;
#X connect 15 0 71 0;
#X connect 16 0 71 0;
#X connect 17 0 71 0;
#X connect 18 0 71 0;
#X connect 19 0 71 0;
#X connect 20 0 71 0;
#X connect 21 0 20 0;
#X connect 22 0 71 0;
#X connect 23 0 71 0;
#X connect 24 0 29 0;
#X connect 25 0 27 0;
#X connect 26 0 25 0;
#X connect 27 0 71 0;
#X connect 28 0 71 0;
#X connect 29 0 71 0;
#X connect 30 0 71 0;
#X connect 31 0 30 0;
#X connect 32 0 71 0;
#X connect 33 0 71 0;
#X connect 34 0 71 0;
#X connect 35 0 71 0;
#X connect 36 0 7 0;
#X connect 37 0 6 0;
#X connect 38 0 0 0;
#X connect 40 0 17 0;
#X connect 41 0 18 0;
#X connect 42 0 19 0;
#X connect 43 0 21 0;
#X connect 44 0 16 0;
#X connect 45 0 31 0;
#X connect 46 0 14 0;
#X connect 47 0 12 0;
#X connect 48 0 13 0;
#X connect 50 0 49 0;
#X connect 51 0 33 0;
#X connect 52 0 32 0;
#X connect 53 0 23 0;
#X connect 54 0 22 0;
#X connect 55 0 28 0;
#X connect 56 0 34 0;
#X connect 57 0 35 0;
#X connect 58 0 3 0;
#X connect 59 0 1 0;
#X connect 60 0 2 0;
#X connect 61 0 11 0;
#X connect 62 0 25 0;
#X connect 63 0 26 0;
#X connect 63 0 25 1;
#X connect 64 0 25 2;
#X connect 64 0 26 0;
#X connect 65 0 70 0;
#X connect 66 0 65 0;
#X connect 67 0 65 0;
#X connect 68 0 66 0;
#X connect 68 0 65 1;
#X connect 69 0 65 2;
#X connect 69 0 66 0;
#X connect 70 0 71 0;
#X connect 72 0 71 0;
#X connect 73 0 71 0;
#X connect 74 0 75 0;
#X connect 74 0 76 0;
#X connect 76 0 73 0;
#X connect 76 1 72 0;
#X connect 77 0 9 0;
#X connect 78 0 106 0;
#X connect 78 0 107 0;
#X connect 106 0 86 0;
#X connect 106 0 87 0;
#X connect 106 0 88 0;
#X connect 106 0 97 0;
#X connect 106 0 96 0;
#X connect 106 0 95 0;
#X connect 106 0 94 0;
#X connect 106 0 93 0;
#X connect 106 0 91 0;
#X connect 106 0 92 0;
#X connect 106 0 89 0;
#X connect 106 0 90 0;
#X connect 106 0 98 0;
#X connect 106 0 99 0;
#X connect 106 0 100 0;
#X connect 106 0 101 0;
#X connect 106 0 102 0;
#X connect 106 0 103 0;
#X connect 106 0 104 0;
#X connect 106 0 105 0;
#X connect 106 0 79 0;
#X connect 106 0 80 0;
#X connect 106 0 81 0;
#X connect 106 0 82 0;
#X connect 106 0 83 0;
#X connect 106 0 84 0;
#X connect 106 0 85 0;
#X connect 107 0 106 0;
